<svg width="18" height="18" viewBox="0 0 18 18" fill="none" xmlns="http://www.w3.org/2000/svg">
<path opacity="0.5" d="M1.99022 17.9315C1.62886 17.8529 1.32717 17.5497 1.25504 17.1926C1.22256 17.0318 0.0391023 9.40281 0.0292384 9.29066C-0.00409164 8.9117 0.283297 8.57783 0.688296 8.52501C0.765955 8.51488 0.831157 8.50517 0.833192 8.50343C0.835226 8.50169 0.810931 8.34783 0.779204 8.16151C0.712449 7.7695 0.709687 7.69873 0.754334 7.52428C0.825997 7.24426 1.00419 7.02316 1.25521 6.90278C1.3317 6.8661 1.43914 6.82771 1.49395 6.81747C1.56517 6.80417 2.19108 6.80028 3.68668 6.80385L5.77973 6.80885L5.89601 6.84761C6.04146 6.89609 6.19867 6.98086 6.32048 7.0765C6.37541 7.11963 6.65484 7.43236 6.99403 7.83031L7.5737 8.51043L10.5804 8.51055C12.5745 8.51061 13.6235 8.51647 13.6951 8.52788C13.9659 8.57103 14.1911 8.75522 14.2829 9.00845C14.2978 9.04953 14.5795 10.8947 14.9089 13.1088C15.5732 17.5731 15.5407 17.3051 15.4431 17.5135C15.3418 17.7299 15.1411 17.8899 14.9111 17.9379C14.77 17.9673 2.12612 17.961 1.99022 17.9315ZM16.0056 14.9527C16.0048 14.9396 15.8435 13.849 15.6471 12.529C15.299 10.1891 15.2863 10.0945 15.1404 8.7525C15.0582 7.99543 14.9908 7.37324 14.9908 7.36985C14.9908 7.36647 15.3295 7.36585 15.7434 7.36849L16.496 7.37327L16.6223 7.43568C16.8367 7.54163 16.982 7.73589 17.0222 7.97048C17.0405 8.07693 17.0232 8.20186 16.5378 11.4788C16.0786 14.5789 16.0102 15.0254 16.0056 14.9527ZM13.1248 7.58632C13.1187 7.58023 13.1137 6.34016 13.1137 4.8306V2.08595H9.01898H4.92424V4.04484V6.00372H4.30961H3.69498L3.69594 3.82488C3.69682 1.82061 3.69918 1.63728 3.72543 1.53678C3.77914 1.33119 3.93128 1.13905 4.11339 1.04683C4.30235 0.951135 3.97761 0.957105 8.99406 0.957105C13.979 0.957105 13.6886 0.952088 13.8634 1.04121C14.0107 1.11629 14.1544 1.28522 14.2111 1.44971C14.2425 1.54103 14.2433 1.6176 14.2433 4.57036V7.59739H13.6896C13.385 7.59739 13.1309 7.5924 13.1248 7.58632ZM7.06229 6.65984C6.8351 6.41399 6.5281 6.21711 6.20748 6.11165C6.1321 6.08685 6.07044 6.05803 6.07045 6.04759C6.07045 6.03716 6.09253 5.98198 6.11952 5.92499C6.20436 5.74576 6.35896 5.62532 6.55086 5.58895C6.60836 5.57805 7.46827 5.5721 8.98575 5.5721C10.5032 5.5721 11.3631 5.57805 11.4206 5.58895C11.6135 5.6255 11.7682 5.74654 11.8527 5.92692C12.0003 6.24219 11.8697 6.60064 11.553 6.74907L11.4609 6.79225L9.32629 6.79607L7.19171 6.79989L7.06229 6.65984ZM6.50233 4.533C6.39551 4.50463 6.25663 4.4146 6.19489 4.33371C5.94198 4.00234 6.05252 3.55044 6.4289 3.37697L6.51064 3.33931H8.98575H11.4609L11.5411 3.37631C11.7142 3.45615 11.8218 3.57743 11.8852 3.764C11.9689 4.01055 11.8608 4.31524 11.6392 4.45733C11.4719 4.56462 11.605 4.55957 8.97811 4.55836C6.94143 4.55743 6.58037 4.55373 6.50233 4.533Z" fill="#212529"/>
</svg>
